<?xml version="1.0" standalone="no"?><!DOCTYPE svg PUBLIC "-//W3C//DTD SVG 1.1//EN" "http://www.w3.org/Graphics/SVG/1.1/DTD/svg11.dtd"><svg t="1607568104000" class="icon" viewBox="0 0 1024 1024" version="1.1" xmlns="http://www.w3.org/2000/svg" p-id="1336" xmlns:xlink="http://www.w3.org/1999/xlink" width="200" height="200"><defs><style type="text/css"></style></defs><path d="M838.4 0h-60.864c-34.496 0-66.176 19.136-82.176 49.664l-19.264 36.864A53.6512 53.6512 0 0 1 628.672 115.2H401.728c-19.904 0-38.144-11.072-47.424-28.672l-19.264-36.864C319.04 19.136 287.36 0 252.864 0H198.4c-42.24 0-76.8 34.56-76.8 76.8v870.4c0 42.24 34.56 76.8 76.8 76.8h640c42.24 0 76.8-34.56 76.8-76.8V76.8c0-42.24-34.56-76.8-76.8-76.8z m-105.408 758.592c-5.824 5.824-13.76 9.408-22.592 9.408H320c-17.6 0-32-14.4-32-32 0-8.832 3.584-16.768 9.408-22.592 5.824-5.824 13.76-9.408 22.592-9.408h390.4c17.6 0 32 14.4 32 32 0 8.832-3.584 16.768-9.408 22.592z m0-208c-5.824 5.824-13.76 9.408-22.592 9.408H320c-17.6 0-32-14.4-32-32 0-8.832 3.584-16.768 9.408-22.592 5.824-5.824 13.76-9.408 22.592-9.408h390.4c17.6 0 32 14.4 32 32 0 8.832-3.584 16.768-9.408 22.592z m0-208c-5.824 5.824-13.76 9.408-22.592 9.408H320c-17.6 0-32-14.4-32-32 0-8.832 3.584-16.768 9.408-22.592 5.824-5.824 13.76-9.408 22.592-9.408h390.4c17.6 0 32 14.4 32 32 0 8.832-3.584 16.768-9.408 22.592z" fill="#6a85f8" p-id="1337"></path><path d="M620.8 64H403.2c-17.6 0-32-14.4-32-32s14.4-32 32-32h217.6c17.6 0 32 14.4 32 32s-14.4 32-32 32z" fill="#6a85f8" p-id="1338"></path></svg>